<svg width="373" height="677" viewBox="0 0 373 677" fill="none" xmlns="http://www.w3.org/2000/svg">
<path d="M225.298 647.24C223.429 647.446 220.879 647.883 217.973 648.878C215.775 649.63 212.277 650.864 208.581 653.862C205.067 656.713 203.256 659.633 202.269 661.257C200.562 664.066 200.288 665.563 200.268 666.723C200.258 667.314 200.216 669.707 201.807 671.545C202.524 672.373 203.337 672.818 204.117 673.153C207.02 674.402 210.119 674.414 216.433 673.796C217.844 673.658 219.795 673.452 222.129 673.153C222.655 673.438 223.506 673.868 224.593 674.278C227.523 675.386 230.21 675.608 233.06 675.565C237.214 675.501 244.385 674.831 253.382 673.153C256.105 673.745 259.962 674.405 264.621 674.6C276.238 675.086 285.041 672.358 288.33 671.224C291.46 670.145 295.101 668.613 299.006 666.396C299.691 664.596 300.586 661.407 299.722 657.881C299.366 656.428 297.98 651.935 290.485 647.753C281.982 643.008 272.774 642.655 254.614 644.055C246.869 644.652 236.91 645.613 225.298 647.24Z" fill="url(#paint0_radial_2651_2)"/>
<path d="M203.278 659.597C201.299 661.506 199.644 663.936 199.221 666.714C198.797 669.493 199.845 672.625 202.185 674.019C203.456 674.777 204.957 674.969 206.414 675.103C210.452 675.474 214.519 675.51 218.562 675.213C220.337 675.083 221.801 674.697 223.436 675.413C225.289 676.225 227.139 676.355 229.129 676.37C235.634 676.421 242.657 677.236 249.079 676.256C250.267 676.074 251.711 675.358 252.869 675.351C253.871 675.344 254.838 675.669 255.791 675.956C256.744 676.243 257.664 676.402 258.661 676.423C259.763 676.446 260.862 676.354 261.963 676.31C262.98 676.269 264 676.387 265.007 676.343C266.478 676.279 267.955 676.315 269.428 676.253C272.124 676.14 274.822 675.933 277.497 675.558C281.887 674.942 286.365 674.315 291.542 671.698C292.753 671.086 300.464 667.361 298.219 665.206C298.009 665.004 295.194 667.085 294.94 667.266C291.01 670.082 286.398 671.668 281.721 672.454C276.417 673.345 271.043 673.852 265.675 674.038C264.008 674.096 262.343 674.105 260.676 674.112C259.39 674.118 258.007 674.269 256.835 673.601C255.659 673.034 254.855 671.815 254.502 670.513C253.92 668.362 254.295 666.018 255.075 663.979C256.945 659.089 260.75 656.325 263.206 654.588C264.898 653.391 267.526 651.794 271.091 650.6C267.242 651.108 264.311 652.346 262.467 653.301C260.358 654.393 257.523 655.861 255.198 658.962C253.755 660.886 252.983 662.807 251.995 665.266C250.358 669.338 250.396 671.048 248.669 672.469C246.503 674.253 242.855 673.98 240.257 674.173C236.818 674.428 233.37 674.546 229.922 674.574C227.68 674.592 225.071 674.379 223.809 672.443C222.664 670.687 223.185 668.298 223.976 666.341C227.146 658.501 234.195 652.505 242.189 650.851C237.545 650.383 232.803 651.951 229.047 654.839C225.29 657.728 222.497 661.876 220.827 666.425C220.165 668.228 219.57 670.241 218.029 671.31C217.207 671.88 216.212 672.101 215.239 672.271C212.636 672.725 209.988 672.896 207.352 672.779C206.086 672.723 204.778 672.588 203.673 671.938C201.754 670.81 200.868 668.31 201.019 666.016C201.169 663.721 202.176 661.588 203.278 659.597Z" fill="url(#paint1_radial_2651_2)"/>
<path d="M119.26 638.9C112.267 640.562 105.004 641.017 98.186 643.365C92.0207 645.488 84.0194 648.847 80.2649 654.636C79.0469 656.514 78.3388 658.788 78.5425 661.034C78.7059 662.835 79.5131 664.639 80.9685 665.658C82.2222 666.537 83.7959 666.752 85.3079 666.892C98.4199 668.103 111.741 670.071 124.897 670.675C137.126 671.236 148.793 670.132 160.926 668.786C161.184 668.758 161.442 668.729 161.699 668.701C165.756 668.252 169.814 667.812 173.873 667.38C175.628 667.193 179.685 667.563 181.117 666.572C182.547 665.581 184.418 661.851 184.813 660.212C185.375 657.884 184.498 655.168 183.442 653.029C182.171 650.451 180.609 647.598 178.103 646.28C160.664 637.107 138.317 634.369 119.26 638.9Z" fill="url(#paint2_radial_2651_2)"/>
<path d="M148.188 646.604C139.268 647.299 127.698 650.296 122.728 658.851C121.373 661.184 119.471 665.582 121.274 668.165C121.77 668.875 122.535 669.34 123.335 669.61C127.861 671.135 133.15 669.999 137.762 669.598C145.171 668.954 152.576 668.266 159.987 667.663C164.241 667.299 168.496 666.945 172.744 666.511C176.097 666.168 179.721 666.294 182.8 664.656C183.188 664.449 183.402 664.193 183.763 664.352C183.924 664.423 184.134 664.766 184.252 664.904C184.649 665.365 185.038 665.845 185.352 666.372C185.914 667.313 186.207 668.482 184.857 668.738C180.319 669.54 175.518 669.414 170.925 669.745C158.284 670.655 145.573 672.157 132.888 672.157C130.209 672.25 127.442 671.977 124.763 671.697C120.706 671.307 116.636 671.057 112.562 671.017C109.734 670.989 106.762 671.383 103.958 670.985C100.992 670.564 98.213 669.278 95.2635 668.77C90.3335 667.921 82.1073 670.072 78.5443 665.536C77.0464 663.629 76.9096 660.829 77.7465 658.522C78.5834 656.216 79.769 654.324 81.7866 652.659C79.871 655.291 78.0366 659.7 80.0773 662.879C82.118 666.057 86.7816 666.962 89.7792 664.76C92.9423 662.437 94.1289 657.842 96.5612 654.793C100.071 650.395 104.785 647.527 109.984 645.868C116.145 643.902 122.681 643.646 129.122 643.748C122.56 643.282 116.017 644.692 110.079 647.607C104.62 650.287 98.1255 654.826 95.9481 660.906C95.3614 662.544 95.1855 664.53 96.2299 665.908C97.5545 667.655 100.071 667.656 102.024 667.899C104.031 668.15 106.087 668.395 108.067 667.832C111.528 666.848 113.644 664.667 115.368 662.89C117.849 660.333 119.494 657.134 122.157 654.705C125.318 651.822 129.231 649.949 133.252 648.795C138.108 647.402 143.166 646.995 148.188 646.604Z" fill="url(#paint3_radial_2651_2)"/>
<path d="M101.667 397.513C96.7417 396.494 69.2929 387.732 61.2016 384.189C33.7461 372.168 8.86854 338.493 1.76304 314.296C1.17354 312.289 -0.515459 307.151 0.154641 302.377C0.446441 300.298 1.14685 298.69 1.63755 297.731C0.994152 296.133 -0.0828662 292.837 0.401834 288.698C0.556134 287.381 1.21922 281.719 5.59202 278.117C9.10302 275.224 13.0776 275.248 17.9497 275.278C22.9487 275.308 26.977 276.418 29.5659 277.342C28.0993 271.454 27.9515 266.501 28.083 263.148C28.2699 258.38 28.4653 253.397 31.5432 248.437C32.889 246.268 35.1948 242.552 39.4521 241.727C40.1611 241.589 43.8864 240.718 46.3724 243.017C48.0454 244.564 48.3086 246.754 48.5968 249.469C49.0035 253.302 48.3069 254.653 47.8553 260.051C47.4857 264.468 47.2607 267.158 47.8553 270.632C48.1319 272.248 48.3751 272.803 50.574 279.407C51.1453 281.123 52.8247 286.167 53.2927 287.666C54.4724 291.444 55.5849 297.133 55.0228 305.215C57.4197 307.277 60.3769 309.525 63.9203 311.668C67.0252 313.545 69.9624 314.969 72.5707 316.055C92.0919 297.56 114.14 275.203 133.661 256.708C126.709 303.903 118.305 354.07 101.667 397.513Z" fill="url(#paint4_radial_2651_2)"/>
<path d="M122.786 594.939C109.434 573.327 107.636 564.307 103.986 554.031C96.2709 532.316 91.8674 510.099 90.7976 504.003C86.7791 481.102 87.3895 459.166 87.4231 446.503C87.5046 415.787 91.2541 393.326 94.7968 373.337C98.7301 351.143 105.338 331.694 112.938 310.69C121.884 285.966 125.341 269.221 133.662 256.708C134.22 255.314 150.383 249.785 157.506 258.839C180.304 287.817 217.532 368.406 243.568 399.549C264.137 421.362 321.465 441.082 331.435 431.497C329.748 455.135 333.206 474.212 334.029 486.376C334.029 486.376 335.241 498.698 339.732 529.701C340.618 535.817 343.357 546.915 346.268 555.958C351.045 570.794 367.731 583.365 372.038 583.243C369.153 585.959 367.366 587.989 361.982 592.194C344.425 605.904 331.938 613.462 301.499 620.431C301.499 620.431 290.175 637.095 290.789 637.765C292.36 639.48 293.373 641.551 294.711 643.438C296.077 645.364 297.423 647.164 298.435 649.34C300.126 652.977 301.564 657.181 301.209 661.318C300.791 666.193 297.652 668.929 293.526 670.674C295.688 668.245 300.234 661.738 297.707 656.499C296.921 654.87 294.498 649.604 288.283 646.622C282.677 643.932 274.869 643.448 273.299 643.411C257.817 643.048 247.592 644.717 244.743 644.923C240.163 645.254 221.841 648.394 218.96 648.565C219.871 647.669 228.817 642.718 227.182 641.181C225.462 639.564 214.025 633.219 213.12 632.301C213.12 632.301 211.986 632.402 211.91 632.399C211.309 632.372 210.709 632.317 210.109 632.274C205.348 631.935 200.592 631.319 195.813 631.367C194.627 631.378 193.422 631.434 192.299 631.832C191.669 632.056 191.024 632.441 190.79 633.093C190.369 634.268 191.47 635.642 192.064 636.557C192.858 637.781 193.759 638.927 194.507 640.184C195.45 641.768 196.223 643.463 196.815 645.223C198.031 648.842 198.894 653.472 197.791 657.215C196.853 660.397 194.899 663.243 192.4 665.295C191.781 665.803 191.127 666.263 190.441 666.666C187.418 668.442 183.884 668.887 180.486 669.266C180.486 669.266 183.542 663.668 184.324 657.917C184.671 655.366 183.27 652.53 181.677 650.6C179.576 648.054 172.28 644.832 167.034 643.221C161.552 641.537 156.409 639.888 150.743 639.111C142.364 637.962 134.377 637.053 125.927 637.919C124.728 638.042 119.304 638.899 119.304 638.899C119.145 638.463 124.14 635.85 126.976 633.907C130.9 631.219 131.315 608.743 122.786 594.939Z" fill="url(#paint5_radial_2651_2)"/>
<path d="M265.969 328.37C259.171 298.139 246.502 273.18 224.209 256.002C204.401 240.738 185.029 239.207 163.586 253.104C146.965 263.876 131.533 295.357 125.117 315.697C115.213 347.088 108.889 376.743 106.675 410.118C104.578 441.742 102.124 477.85 108.792 508.748C114.757 536.386 124.138 561.577 141.449 580.985C163.724 605.959 194.713 614.439 222.901 596.344C253.028 577.005 268.447 526.784 269.748 488.02C271.237 443.625 281.163 405.011 274.62 358.374C273.763 352.263 267.37 334.597 265.969 328.37Z" fill="url(#paint6_radial_2651_2)"/>
<path d="M293.439 156.119C294.258 160.448 295.97 170.443 296.405 193.289C296.699 208.728 304.397 255.711 306.39 263.305C310.019 277.131 319.605 290.438 326.669 302.508C336.114 318.646 346.727 333.938 356.281 349.988C363.762 362.554 369.563 377.124 367.82 391.808C366.685 401.371 362.397 410.286 356.874 418.006C342.205 438.511 320.531 458.112 297.054 466.301C295.976 466.677 292.428 466.934 291.737 467.69C290.427 469.122 288.195 471.205 284.942 472.699C277.626 476.058 270.67 473.898 268.152 473.117C264.972 472.129 261.895 471.174 259.158 468.316C255.561 464.561 255.825 460.942 251.163 457.463C249.774 456.427 248.981 456.173 247.565 454.75C246.699 453.88 244.45 451.566 243.567 448.071C242.681 444.562 243.612 441.603 244.367 439.305C245.549 435.706 247.887 432.94 252.562 427.408C255.999 423.341 257.763 421.859 259.957 420.729C261.843 419.757 263.557 419.297 264.755 419.059C268.965 418.207 266.509 388.083 266.285 384.467C264.677 358.512 259.971 332.418 249.645 308.617C244.721 297.269 238.555 285.061 230.175 276.061C221.206 266.428 208.706 261.829 197.313 256.252C177.367 246.49 124.072 237.805 108.724 191.821C106.885 186.312 104.704 164.399 104.518 152.632C104.378 148.822 104.175 141.436 106.744 131.962C108.657 124.909 112.557 121.759 115.154 119.368C139.324 104.247 160.87 97.1523 175.283 93.5567C190.855 89.672 214.642 75.9964 232.284 78.2885C240.95 79.4145 262.814 83.7493 278.426 107.151C283.811 115.224 290.763 141.967 293.439 156.119Z" fill="url(#paint7_radial_2651_2)"/>
<path d="M173.419 645.281C172.409 645.287 171.866 643.797 171.363 643.06C169.787 640.75 167.435 639.05 164.837 638.246C161.881 637.332 158.647 637.536 155.606 637.127C151.463 636.571 147.393 635.747 143.45 634.284C141.168 633.438 138.955 632.377 136.88 631.072C135.823 630.407 134.802 629.678 133.829 628.884C132.941 628.159 131.825 627.39 131.191 626.411C131.137 626.327 131.083 626.233 131.091 626.132C131.135 625.548 132.404 626.229 132.627 626.352C133.433 626.795 134.173 627.479 134.932 628.009C136.485 629.097 138.086 630.122 139.787 630.938C147.13 634.461 155.347 634.175 163.158 635.542C167.811 636.357 171.916 638.532 174.196 643.019C174.353 643.327 174.501 643.649 174.534 643.996C174.601 644.695 174.09 645.278 173.419 645.281Z" fill="#161719"/>
<path d="M309.573 274.834C306.449 273.881 303.377 274.082 300.589 274.476C282.972 276.967 265.933 286.472 250.155 294.691C248.283 295.666 246.382 296.586 244.496 297.531C244.817 298.242 245.16 298.942 245.525 299.629C245.599 299.769 253.483 295.722 254.209 295.354C257.116 293.878 260.007 292.366 262.879 290.817C265.105 289.617 267.355 288.481 269.623 287.362C275.24 284.589 280.965 282.022 286.88 280.021C291.284 278.531 295.93 277.156 300.552 276.674C303.067 276.318 306.943 275.604 309.596 276.414C312.21 277.211 312.04 277.04 312.04 277.04C312.04 277.04 313.07 275.901 309.573 274.834Z" fill="#212121"/>
<path d="M165.505 259.774C155.902 262.344 134.219 255.887 134.219 255.887L132.574 258.262C132.803 260.968 142.526 269.074 146.275 271.58C146.915 270.892 158.187 264.598 165.505 259.774Z" fill="#212121"/>
<path d="M257.466 219.531C228.724 227.225 199.983 234.918 171.242 242.612C191.662 253.583 201.022 258.043 205.699 259.973C206.714 260.392 209.674 261.874 213.966 264.233C215.649 265.159 215.141 264.794 216.493 265.651C242.359 250.041 255.766 223.944 257.466 219.531Z" fill="#212121"/>
<path d="M205.697 259.972C201.021 258.042 191.661 253.582 171.241 242.611C166.897 243.774 162.553 244.937 158.209 246.1C150.891 250.925 157.941 257.702 150.865 264.987C150.2 265.672 146.913 270.891 146.273 271.579C146.333 271.515 151.118 273.8 151.631 273.973C153.726 274.68 155.923 275.148 158.088 275.56C169.747 277.778 182.546 277.21 194.099 274.578C197.171 273.879 200.206 273.002 203.179 271.933C209.033 269.828 211.649 268.573 216.491 265.65C215.14 264.793 215.648 265.158 213.964 264.232C209.673 261.873 206.713 260.391 205.697 259.972Z" fill="#ABB7DE"/>
<path d="M103.266 157.09C100.726 157.463 97.1895 157.868 94.6498 158.242C93.7201 158.857 88.7855 159.461 87.5787 162.216C86.9178 163.724 81.0065 165.589 80.9414 166.558C85.7293 165.948 99.1727 165.759 103.961 165.149C103.397 162.473 103.83 159.766 103.266 157.09Z" fill="black"/>
<path d="M135.006 255.787C134.851 255.241 134.352 254.86 133.785 254.901C133.172 254.951 132.714 255.462 132.688 256.082L135.006 255.787Z" fill="url(#paint8_radial_2651_2)"/>
<path d="M222.548 254.957C228.506 251.774 237.012 246.315 245.157 237.29C256.331 224.908 264.19 209.115 265.06 191.926C266.641 160.666 249.687 124.207 220.092 112.93C215.038 111.004 209.718 109.891 204.357 109.472C198.385 109.005 188.732 109.206 180.883 113.309C167.441 120.337 163.358 135.031 162.698 137.571C160.594 145.668 161.47 152.626 162.239 156.453C157.603 156.989 154.963 158.157 150.327 158.692C150.333 156.688 149.866 153.188 149.427 149.685C148.503 142.33 146.299 134.802 143.02 128.205C141.052 124.246 136.532 120.88 132.596 119.147C118.716 113.036 107.789 132.456 104.847 143.805C103.722 148.145 103.381 152.614 103.265 157.09C103.067 164.715 104.012 171.014 104.928 175.36C104.103 178.23 103.095 182.311 102.418 187.282C100.391 202.16 102.392 218.081 109.408 231.472C116.17 244.379 127.622 253.823 140.043 260.392C177.975 280.451 218.483 257.361 222.548 254.957Z" fill="url(#paint9_radial_2651_2)"/>
<path d="M294.386 156.12C293.262 150.849 288.971 147.756 284.137 146.679C277.736 145.253 270.781 145.92 264.519 147.773C263.217 148.159 261.904 148.534 260.663 149.103C260.352 149.246 257.161 150.852 257.156 150.84C257.604 151.922 258.043 152.819 258.344 153.606C258.884 155.015 259.403 156.302 259.81 157.492C261.804 156.474 263.614 155.22 265.689 154.359C269.67 152.708 273.865 151.646 278.126 151.195C278.468 151.16 278.802 151.102 279.144 151.071C285.733 150.466 292.04 153.222 294.369 161.195C294.523 160.195 294.809 158.105 294.386 156.12Z" fill="url(#paint10_linear_2651_2)"/>
<path d="M243.307 154.804C242.831 154.922 242.356 155.04 241.88 155.158C241.229 154.345 240.577 153.533 239.926 152.72C240.172 148.868 240.418 145.016 240.665 141.164C241.031 141.183 241.369 141.202 241.726 141.26C242.278 145.551 242.755 150.513 243.307 154.804Z" fill="#5C5D5E"/>
<path d="M145.705 170.305C145.672 184.908 137.392 196.219 126.303 196.538C111.498 196.963 105.854 186.31 106.276 170.045C106.655 155.446 115.331 143.626 126.425 143.654C137.52 143.682 145.739 155.702 145.705 170.305Z" fill="url(#paint11_radial_2651_2)"/>
<path d="M230.251 159.827C232.114 175.787 219.934 190.467 203.046 192.617C186.158 194.767 170.957 183.571 169.094 167.612C167.231 151.652 180.183 136.873 192.143 135.351C209.031 133.202 228.388 143.868 230.251 159.827Z" fill="url(#paint12_radial_2651_2)"/>
<path d="M127.529 186.779C134.087 186.337 138.976 179.627 138.448 171.792C137.919 163.957 132.175 157.965 125.617 158.407C119.059 158.849 114.17 165.558 114.698 173.393C115.227 181.228 120.971 187.221 127.529 186.779Z" fill="#050505"/>
<path d="M136.804 169.693C136.061 177.455 132.17 181.466 126.583 181.986C123.177 182.304 120.004 180.747 117.902 178.096C118.434 179.483 119.43 181.416 121.239 182.963C121.898 183.527 124.335 185.468 127.706 185.161C128.678 185.072 131.382 184.645 133.576 181.978C135.606 179.511 136.47 176.486 136.624 175.206C136.83 173.488 136.983 171.75 136.804 169.693Z" fill="url(#paint13_radial_2651_2)"/>
<path d="M259.81 157.492C256.534 159.126 253.644 160.794 251.681 162.008C248.147 164.194 247.263 165.052 246.542 165.968C245.231 167.634 244.624 169.284 243.601 172.063C242.439 175.223 242.704 175.547 241.831 177.756C240.563 180.961 238.902 183.061 237.538 184.786C237.07 185.378 234.838 188.161 231.088 191.074C228.886 192.785 225.545 195.019 221.043 196.802C223.363 194.125 225.934 190.628 228.209 186.228C233.27 176.438 234.3 167.134 234.458 161.53C236.76 160.377 239.102 159.231 241.484 158.093C246.629 155.636 252.195 152.97 257.156 150.84C258.19 153.051 258.982 155.253 259.81 157.492Z" fill="url(#paint14_linear_2651_2)"/>
<path d="M104.663 160.412C105.327 152.936 106.16 143.558 112.561 135.27C116.778 129.808 118.985 128.534 121.689 127.052C126.016 124.68 133.686 122.246 136.917 121.603C135.705 120.838 134.029 119.986 132.595 119.148C119.453 111.463 107.788 132.457 104.846 143.806C103.722 148.146 103.381 152.614 103.265 157.091C103.067 164.716 104.012 171.015 104.928 175.361C104.493 171.867 104.108 166.664 104.663 160.412Z" fill="url(#paint15_radial_2651_2)"/>
<path d="M224.631 140.825C218.682 140.8 212.73 140.945 206.792 141.337C194.97 142.117 183.174 143.882 171.758 147.235C168.373 148.229 165.145 149.471 162.122 151.383C161.205 151.962 158.787 153.565 155.217 154.388C149.612 155.68 144.938 154.177 143.071 153.614C131.609 150.156 119.595 149.427 107.723 149.694C98.8557 149.893 91.2171 151.363 88.0641 151.983C83.1329 152.953 78.9319 154.083 75.6406 155.083C75.982 159.015 76.3235 162.946 76.6649 166.877C77.2283 166.972 78.0757 167.195 78.9125 167.791C80.3474 168.814 80.9073 170.333 81.1725 171.082C82.7832 175.629 83.5888 177.902 83.9297 180.097C85.0675 187.423 88.3646 194.201 93.8695 198.994C101.192 205.37 110.986 206.95 120.158 205.116C131.792 202.79 141.979 194.397 144.454 181.898C144.95 179.391 145.794 176.975 146.321 174.484C146.76 172.408 146.642 169.998 148.115 168.332C150.232 165.941 155.594 165.524 158.142 167.253C159.415 168.116 160.227 169.552 160.807 171.017C163.307 177.323 166.442 182.206 170.7 187.411C176.804 194.874 185.707 199.087 194.915 200.356C204.193 201.634 215.945 200.552 223.965 195.154C224.483 194.805 224.988 194.436 225.477 194.044C234.316 186.967 235.183 174.279 236.124 163.587C236.467 159.697 237.404 155.456 241.882 155.159C241.477 150.494 240.667 141.165 240.667 141.165C240.667 141.165 225.805 140.83 224.631 140.825ZM138.76 182.61C137.082 188.948 133.667 193.679 127.992 196.602C124.746 198.274 122.018 198.665 119.555 199.018C114.128 199.796 108.403 199.459 103.309 197.23C98.5834 195.162 95.1727 190.774 93.1035 185.982C89.5368 177.722 87.0156 165.031 95.2047 158.731C96.3205 157.873 97.5718 157.212 98.8949 156.693C101.614 155.624 104.635 155.149 107.407 154.763C114.104 153.831 121.697 154.209 128.266 156.027C134.915 157.868 139.485 162.356 140.229 169.565C140.672 173.859 139.856 178.469 138.76 182.61ZM228.738 170.779C228.473 175.973 227.675 181.415 224.873 185.838C221.547 191.087 215.935 193.641 210.081 194.242C204.324 194.834 198.491 194.605 192.792 193.571C187.781 192.661 183.282 189.773 179.601 186.152C174.139 180.781 170.263 173.615 168.895 165.896C168.527 163.822 168.214 161.745 168.63 159.645C168.666 159.464 168.708 159.286 168.756 159.111C169.951 154.715 173.984 152.57 177.76 151.072C182.339 149.255 187.185 148.274 192.037 147.677C196.136 147.173 200.259 146.936 204.377 146.659C208.294 146.395 212.118 145.819 216.016 146.514C222.518 147.673 226.803 152.221 228.125 158.927C228.877 162.747 228.935 166.894 228.738 170.779Z" fill="black"/>
<path d="M233.047 150.121C235.245 149.908 236.944 148.878 236.841 147.821C236.739 146.764 234.873 146.08 232.675 146.293C230.477 146.507 228.778 147.537 228.881 148.594C228.984 149.651 230.849 150.335 233.047 150.121Z" fill="url(#paint16_radial_2651_2)"/>
<path d="M85.5783 160.162C85.5811 159.1 84.1119 158.234 82.2967 158.23C80.4816 158.225 79.0079 159.082 79.0051 160.145C79.0023 161.207 80.4715 162.072 82.2866 162.077C84.1017 162.082 85.5755 161.224 85.5783 160.162Z" fill="url(#paint17_radial_2651_2)"/>
<path d="M167.454 161.035C166.478 169.885 169.259 179.115 174.91 185.788C177.742 189.132 181.276 191.809 185.166 193.654C194.255 197.965 205.491 197.411 214.773 194.094C212.711 194.831 210.061 194.943 207.865 195.182C205.453 195.444 203.025 195.573 200.6 195.51C195.84 195.387 191.032 194.52 186.651 192.519C180.944 189.911 176.055 185.531 172.801 179.975C172.508 179.476 172.229 178.97 171.963 178.455C169.767 174.222 168.31 169.568 167.734 164.79C167.592 163.612 167.323 162.22 167.454 161.035Z" fill="url(#paint18_radial_2651_2)"/>
<path d="M95.9522 156.215C95.9522 156.215 93.7856 157.174 92.6727 158.019C90.1959 159.9 88.3502 162.609 87.5092 165.662C86.3561 169.848 86.6648 174.422 87.3423 178.67C88.8139 187.897 94.5078 197.422 103.577 200.077C104.159 200.247 105.645 200.446 105.645 200.446C105.645 200.446 102.234 198.625 101.052 197.82C99.5067 196.767 98.0631 195.553 96.7466 194.204C90.3397 187.638 88.0686 178.531 88.2236 169.361C88.3489 161.951 95.9522 156.215 95.9522 156.215Z" fill="url(#paint19_radial_2651_2)"/>
<path d="M243.307 154.804C245.147 154.148 247.796 153.219 251.001 152.149C256.737 150.234 259.605 149.277 261.912 148.686C269.78 146.671 275.076 146.849 281.04 147.049C283.273 147.124 286.021 147.314 288.817 149.25C289.757 149.901 291.688 151.277 292.967 154.068C294.442 157.285 294.528 160.112 294.371 161.193C294.98 160.853 295.442 160.487 296.143 159.408C297.771 156.904 297.276 153.785 297.035 152.273C295.602 143.253 287.714 140.214 280.582 139.461C268.148 138.146 255.552 139.486 243.232 141.065C243.129 141.079 241.727 141.261 241.727 141.259C242.274 145.551 242.76 150.512 243.307 154.804Z" fill="black"/>
<path d="M196.776 180.412C204.265 179.813 209.786 172.441 209.106 163.947C208.426 155.452 201.804 149.052 194.315 149.651C186.825 150.251 181.305 157.622 181.985 166.117C182.664 174.611 189.286 181.011 196.776 180.412Z" fill="#050505"/>
<path d="M207.868 162.678C207.082 170.497 202.465 174.745 195.762 175.598C191.677 176.118 187.846 174.747 185.285 172.216C185.943 173.574 187.165 175.451 189.358 176.893C190.158 177.419 193.111 179.219 197.154 178.711C198.32 178.564 201.562 177.976 204.16 175.174C206.564 172.583 207.56 169.501 207.727 168.21C207.952 166.477 208.112 164.727 207.868 162.678Z" fill="url(#paint20_radial_2651_2)"/>
<path d="M178.382 129.674C177.51 128.807 178.945 125.825 179.698 124.551C181.492 121.521 184.158 120.164 185.361 119.571C188.046 118.248 190.365 118.09 192.5 117.967C199.62 117.555 206.879 120.273 212.124 125.317C212.847 126.012 219.216 132.795 218.614 133.421C218.331 133.714 216.733 131.841 212.843 129.634C209.071 127.494 205.883 126.597 204.796 126.312C198.931 124.775 192.32 124.778 186.519 126.639C181.54 128.236 179.27 130.558 178.382 129.674Z" fill="url(#paint21_radial_2651_2)"/>
<path d="M148.957 232.05C150.175 233.3 155.266 241.509 165.12 240.573C174.235 239.706 178.554 235.218 181.512 231.264C189.668 220.361 192.438 204.229 192.157 199.885C177.758 210.683 163.357 221.251 148.957 232.05Z" fill="#ABB7DE"/>
<path d="M141.355 207.742C158.098 205.266 174.84 202.789 191.582 200.312C191.223 202.379 190.599 205.269 189.461 208.591C187.629 213.936 184.364 223.465 175.864 229.502C173.8 230.968 162.643 238.894 153.252 233.515C147.714 230.342 145.681 224.198 145.05 221.94C143.819 217.208 142.587 212.475 141.355 207.742Z" fill="#09060F"/>
<path d="M153.148 229.518C152.661 228.981 152.083 228.16 151.996 227.11C151.737 224.002 155.974 221.346 157.981 220.088C166.636 214.663 182.595 210.968 188.204 209.748C186.394 214.385 184.117 217.814 182.145 220.242C176.604 227.064 165.463 235.854 157.094 232.357C155.116 231.53 153.792 230.226 153.148 229.518Z" fill="url(#paint22_linear_2651_2)"/>
<path d="M192.155 199.885C191.913 200.029 191.783 201.736 191.715 202.077C191.498 203.181 191.26 204.283 190.976 205.37C190.442 207.417 189.855 209.451 189.145 211.441C187.48 216.111 185.231 220.676 182.41 224.752C179.53 228.911 175.993 233.021 171.505 235.271C169.513 236.27 163.613 239.228 156.767 237.064C150.086 234.953 145.117 228.775 143.552 221.779C142.873 218.741 142.064 215.459 139.74 213.307C137.499 211.233 134.692 211.016 133.387 211.016C136.427 210.721 139.467 210.427 142.507 210.132C143.547 213.819 144.68 216.788 145.588 218.934C147.242 222.844 148.297 224.376 148.902 225.186C151.831 229.116 155.911 231.696 160.811 231.526C164.152 231.41 167.35 230.023 170.204 228.206C176.188 224.398 181.618 219.449 185.892 213.647C186.983 212.166 187.889 210.541 188.664 208.858C190.265 205.377 190.974 202.223 191.319 200.046C191.6 199.879 191.875 200.051 192.155 199.885Z" fill="url(#paint23_radial_2651_2)"/>
<path d="M154.003 165.992C154.014 165.992 154.024 165.992 154.035 165.993C155.004 166.05 156.083 165.937 157.785 166.828C157.858 166.866 159.214 167.504 160.027 169.041C161.259 171.371 161.652 173.299 164.3 178.067C167.217 183.319 170.893 187.449 173.019 189.6C176.064 192.683 178.931 194.483 182.879 196.426C187.269 198.586 190.023 199.383 192.154 199.886C191.522 200.576 190.019 201.935 188.807 202.953C188.807 202.953 186.003 205.306 182.497 206.989C175.748 210.227 164.893 210.81 161.73 210.94C152.791 211.31 151.998 210.273 145.44 210.936C142.633 211.22 139.794 210.877 136.981 211.089C134.641 211.265 132.928 211.509 131.738 210.371C130.572 209.256 130.575 207.422 130.589 206.207C130.635 202.079 132.61 198.918 133.236 197.942C140.161 187.145 144.505 181.12 145.831 176.305C146.365 174.367 146.509 172.372 146.973 170.414C147.312 168.983 148.031 167.867 149.285 167.179C151.358 166.042 152.735 166.028 154.003 165.992Z" fill="url(#paint24_linear_2651_2)"/>
<path d="M167.189 209.068C162.477 209.489 157.72 209.141 153 209.118C149.548 209.1 146.096 209.049 142.645 208.964C140.016 208.899 136.193 209.416 133.958 207.605C132.738 206.616 132.224 204.894 132.31 203.283C132.396 201.672 133 200.144 133.668 198.689C134.858 196.095 136 193.49 137.626 191.168C135.876 193.414 134.109 196.206 132.731 198.718C131.352 201.23 130.652 202.867 130.554 206.518C130.512 208.107 130.853 209.915 132.149 210.748C133.053 211.328 134.188 211.283 135.248 211.231C149.498 210.529 164.488 212.722 178.408 208.582C179.804 208.166 181.184 207.675 182.504 207.041C186.011 205.359 188.814 203.005 188.814 203.005C190.027 201.988 191.524 200.576 192.156 199.886C192.064 199.897 189.683 201.219 189.131 201.57C188.314 202.09 183.877 205.328 180.878 206.405C176.322 208.04 169.996 208.817 167.189 209.068Z" fill="#C1653B"/>
<path d="M147.44 172.402C148.456 170.898 149.383 169.397 151.126 168.552C154.419 166.956 157.819 168.88 160.127 171.349C160.747 172.012 161.331 172.639 161.896 173.246C161.164 171.574 160.732 170.372 160.029 169.041C159.215 167.504 157.859 166.866 157.787 166.828C156.084 165.937 155.005 166.05 154.036 165.993C154.025 165.992 154.015 165.992 154.004 165.992C152.736 166.028 151.36 166.042 149.286 167.179C148.032 167.867 147.313 168.983 146.974 170.414C146.731 171.439 146.285 172.739 146.462 173.755C146.813 173.316 147.13 172.859 147.44 172.402Z" fill="#C1653B"/>
<path d="M111.525 143.124C112.02 143.379 113.186 139.95 117.319 136.722C118.612 135.713 121.031 133.824 124.244 133.175C130.85 131.843 135.5 136.828 137.065 135.042C138.105 133.855 136.875 130.71 135.394 128.924C132.853 125.861 128.871 125.947 127.074 125.985C122.546 126.082 119.232 128.435 117.772 129.668C111.911 134.618 110.798 142.749 111.525 143.124Z" fill="url(#paint25_radial_2651_2)"/>
<path d="M132.162 135.623C139.403 132.517 144.461 128.868 147.755 126.091C152.093 122.434 155.992 118.216 160.11 114.299C166.234 108.475 173.743 104.608 180.968 100.527C188.301 96.385 194.648 90.6391 202.054 86.6443C208.717 83.0498 216.018 80.7386 223.538 80.4138C230.444 80.1156 235.434 81.487 241.159 83.0687C247.203 84.7388 258.612 88.0363 268.958 98.0193C272.182 101.131 274.499 104.116 276.024 106.286C275.594 103.784 274.725 100.511 272.878 97.0715C272.155 95.7243 271.387 94.5491 270.639 93.5363C272.457 94.0788 274.425 94.7877 276.487 95.7208C281.387 97.9379 285.215 100.695 288.034 103.131C286.765 101.056 284.966 98.5834 282.46 96.164C277.687 91.5549 272.661 89.371 269.495 88.3121C272.706 88.7275 276.364 89.4289 280.321 90.6017C286.149 92.329 290.998 94.5963 294.793 96.7256C292.945 94.4311 290.073 91.408 285.959 88.7706C280.074 84.9975 274.463 83.8195 271.139 83.4003C272.669 82.4539 274.673 81.4609 277.125 80.8156C283.757 79.0699 289.403 80.9898 291.859 82.0144C289.965 80.2139 287.502 78.3904 284.393 77.1006C271.829 71.8867 259.37 79.8088 257.412 81.0971C259.741 79.9809 263.174 78.0332 266.66 74.7446C269.55 72.0186 272.711 69.0365 274.291 64.0773C276.253 57.9195 274.633 52.3073 273.746 49.8605C273.444 52.0994 272.709 55.4811 270.671 58.9434C269.052 61.6923 266.808 63.682 262.318 67.6613C258.683 70.8841 255.521 73.2523 253.158 75.0145C250.989 76.6316 249.145 77.9287 247.83 78.8339C249.514 77.6023 252.954 74.7144 255.038 69.648C255.833 67.7142 257.701 63.1713 256.335 57.5628C255.076 52.3997 251.815 49.3635 250.562 48.309C251.157 49.9806 251.72 52.0145 252.054 54.3651C252.767 59.3838 252.116 63.6159 251.442 66.3854C251.513 64.4009 251.47 61.4987 250.859 58.0814C250.479 55.9578 248.761 47.3753 241.915 39.3275C238.144 34.8954 234.047 32.0707 230.779 30.2934C232.327 31.8814 234.434 34.3678 236.265 37.8448C236.777 38.8168 239.039 43.2281 239.909 49.6062C240.686 55.2993 239.959 59.6606 239.77 60.717C239.187 63.982 238.219 66.601 237.404 68.4356C237.746 65.2329 237.921 59.9704 236.275 53.8418C235.917 52.5126 234.399 47.1406 230.353 41.2872C226.38 35.5381 222.057 32.3481 218.446 29.7319C213.168 25.9078 208.76 23.9719 203.104 21.5286C198.66 19.6087 192.559 17.2802 185.035 15.3129C191.064 18.4212 195.632 21.7054 198.785 24.2436C200.865 25.9188 203.328 27.9193 206.138 31.0417C209.876 35.1945 212.327 39.2189 213.864 42.1282C212.046 40.3163 209.072 37.6148 204.968 35.0439C199.904 31.8722 197.999 31.9546 190.421 28.0623C187.15 26.382 183.168 24.3151 178.476 20.8344C174.394 17.8072 171.507 15.6655 168.858 11.8006C165.779 7.3101 164.608 2.8068 164.106 0C163.619 4.7492 163.901 8.7103 164.278 11.5137C164.682 14.5179 165.204 18.1834 167.163 22.4822C168.978 26.464 171.247 29.281 172.873 31.0212C170.873 28.1369 167.442 23.9166 162.136 20.2199C155.093 15.3136 148.581 13.9995 147.079 13.719C140.419 12.475 134.864 13.3589 131.523 14.1834C136.2 14.3806 139.427 15.8149 141.279 16.8626C145.118 19.0335 147.409 22.0058 151.27 27.014C153.449 29.8406 155.08 32.3173 156.16 34.0455C154.37 34.0322 151.743 34.0219 148.568 34.0438C143.249 34.0805 137.251 34.122 132.452 34.4171C127.703 34.7091 120.922 35.4466 112.565 37.4535C114.606 38.0304 117.787 38.8852 121.736 39.7557C126.743 40.8592 128.807 41.0668 132.837 42.0193C135.365 42.6171 139.04 43.5963 143.464 45.1925C140.818 44.8837 136.963 44.4184 132.301 43.7995C125.205 42.8573 121.575 42.3703 117.617 41.5871C111.853 40.4468 108.196 39.7231 103.779 37.9974C93.5525 34.0015 86.9677 27.6464 84.1439 24.868C81.1582 21.9303 77.2303 17.4924 73.5811 11.3118C73.3112 15.0123 73.1605 20.2936 73.802 26.5681C74.488 33.2787 75.6 44.1545 82.1093 55.4711C88.6027 66.76 97.412 73.1762 102.838 76.4238C100.844 76.6208 97.9912 76.7958 94.5745 76.6299C89.6895 76.3926 82.7493 76.0555 75.8461 72.3504C67.9598 68.1176 63.56 61.3345 61.4258 57.2859C61.603 61.1964 62.319 67.2486 65.0811 73.9464C70.732 87.6492 80.9762 94.4261 84.5898 96.7441C94.4851 103.092 104.065 104.372 109.154 104.651C106.979 105.095 103.842 105.662 100.032 106.091C93.7073 106.803 90.2982 107.186 86.2552 106.387C83.5927 105.86 79.178 104.528 74.2971 100.601C78.324 106.84 82.9357 110.323 85.6444 112.065C92.6832 116.592 99.3473 117.387 103.676 117.852C109.882 118.52 115.026 117.853 118.385 117.18C116.908 118.053 115.059 119.358 113.22 121.272C110.479 124.125 108.945 127.097 108.104 129.107C110.337 127.653 112.697 126.221 115.186 124.833C126.185 118.701 136.83 115.036 146.163 112.82C145.575 113.64 144.601 115.034 143.474 116.822C141.225 120.388 139.286 124.067 137.735 127.021C136.638 129.11 135.972 130.45 134.667 132.356C133.678 133.799 132.773 134.91 132.162 135.623Z" fill="url(#paint26_linear_2651_2)"/>
<path d="M255.59 85.9941C257.421 86.1291 260.056 86.5763 262.903 87.9937C266.955 90.0108 269.245 92.901 270.252 94.2009C272.21 96.7299 273.317 99.2225 273.952 101.03C272.262 98.9911 270.241 96.8121 267.843 94.6361C263.485 90.6809 259.188 87.9189 255.59 85.9941Z" fill="#262627"/>
<path d="M261.934 85.6212C263.764 85.0632 266.349 84.4534 269.486 84.2847C270.95 84.2059 273.598 84.0797 276.597 84.7158C281.572 85.771 285.312 88.4574 287.689 90.6375C285.278 89.3009 282.224 87.9054 278.57 86.876C271.781 84.964 265.863 85.1437 261.934 85.6212Z" fill="#494748"/>
<path d="M257.426 82.7875C261.41 80.0593 265.041 78.6541 267.512 77.8974C271.049 76.8142 275.003 75.6035 279.839 76.73C282.767 77.412 284.965 78.7053 286.306 79.6382C284.374 79.2217 281.799 78.7771 278.742 78.5597C277.999 78.5069 274.971 78.307 272.126 78.496C269.312 78.683 264.057 79.4247 257.426 82.7875Z" fill="#403937"/>
<path d="M248.105 80.8876C255.081 78.8083 261.293 74.4261 266.159 68.8553C268.789 65.8434 271.408 62.3483 272.472 58.3356C272.602 57.8437 272.615 57.1052 272.841 56.6621C271.271 59.7449 269.203 62.5394 266.758 64.9211C264.127 67.485 261.003 69.3372 258.136 71.5867C256.368 72.9743 254.597 74.4154 252.99 76.0042C252.171 76.8137 251.363 77.6377 250.552 78.4567C250.147 78.8658 249.742 79.2748 249.334 79.6811C249.042 79.9724 248.487 80.7739 248.105 80.8876Z" fill="url(#paint27_linear_2651_2)"/>
<path d="M238.606 77.6127C240.24 76.748 242.91 75.0328 245.051 71.894C248.676 66.5792 248.316 60.8001 248.141 58.0021C247.686 50.6974 244.331 45.6658 242.774 43.3925C240.303 39.7869 237.572 37.4167 235.652 35.9902C236.924 37.4022 238.722 39.6636 240.276 42.8006C243.704 49.7179 243.602 56.1639 243.528 58.9222C243.4 63.6186 242.4 67.198 241.737 69.5156C240.77 72.8935 239.589 75.626 238.606 77.6127Z" fill="url(#paint28_linear_2651_2)"/>
<path d="M252.9 53.5273C253.502 54.9053 254.26 57.0592 254.502 59.7956C254.588 60.7757 254.837 64.4091 253.29 68.6774C251.64 73.2294 248.845 76.0271 247.363 77.3154C248.908 74.8308 250.592 71.4788 251.717 67.3076C252.022 66.1756 252.838 62.9372 253.012 58.6251C253.094 56.5928 253.012 54.8543 252.9 53.5273Z" fill="#17141E"/>
<path d="M222.866 73.832C223.286 70.6444 223.617 65.0231 221.688 58.5479C219.394 50.8469 215.141 46.0976 212.788 43.5284C207.483 37.7353 201.79 34.7499 198.63 33.128C194.184 30.8454 192.049 30.5349 185.895 27.1028C184.064 26.0813 181.487 24.6352 178.497 22.516C175.279 20.2349 170.916 16.7025 166.367 11.457C166.947 14.1625 168.09 18.1536 170.521 22.4161C173.86 28.2695 177.969 31.7232 182.046 35.0875C187.794 39.8295 188.785 39.1749 196.016 45.0392C202.105 49.9767 204.298 52.789 205.125 53.8961C206.674 55.9669 209.229 59.4497 210.837 64.7854C212.359 69.8374 212.334 74.2369 212.117 76.9497C215.7 75.9105 219.283 74.8712 222.866 73.832Z" fill="url(#paint29_linear_2651_2)"/>
<path d="M195.41 20.5547C199.333 21.5799 204.853 23.3381 211.113 26.4544C214.22 28.0011 216.879 29.3414 220.062 31.7497C223.196 34.1209 228.475 38.2116 232.064 45.6201C233.156 47.8755 235.252 52.3217 235.418 58.521C235.533 62.8079 234.681 66.2742 233.973 68.4552L226.25 73.8519C226.61 69.9409 226.701 63.8836 224.783 56.9622C222.544 48.8822 218.687 43.6634 215.099 38.9068C211.421 34.0306 205.159 26.9332 195.41 20.5547Z" fill="url(#paint30_linear_2651_2)"/>
<path d="M180.639 40.543C178.734 39.1167 175.737 36.8489 172.088 33.9849C165.944 29.1625 164.62 27.8821 160.795 25.1501C156.503 22.085 153.79 20.1475 149.908 18.3301C146.706 16.8312 142.059 15.11 136.027 14.3301C139.05 15.0312 143.314 16.4724 147.373 19.7779C151.279 22.9578 152.338 25.699 156.236 29.9299C158.664 32.5647 162.42 36.0242 168.03 39.2004C172.233 39.6479 176.436 40.0955 180.639 40.543Z" fill="url(#paint31_linear_2651_2)"/>
<path d="M207.482 75.0547C203.44 77.3814 199.398 79.7082 195.355 82.0349C192.144 75.4267 188.516 70.4843 185.643 67.0924C184.505 65.7478 179.455 59.8893 171.352 54.2942C170.595 53.7717 167.922 51.9465 164.196 49.9177C162.482 48.9846 157.442 46.3189 149.581 43.6817C139.677 40.3596 130.262 38.7485 123.316 37.9269C127.265 36.8856 132.836 35.6619 139.592 34.9859C146.472 34.2975 153.781 33.5661 163.084 35.4048C175.465 37.8517 184.072 43.4059 187.441 45.7724C191.333 48.507 195.991 51.8439 200.269 58.0094C204.819 64.5679 206.665 71.0478 207.482 75.0547Z" fill="url(#paint32_linear_2651_2)"/>
<path d="M180.012 90.5634C183.168 88.0355 186.324 85.5076 189.48 82.9797C183.521 72.7302 176.82 66.4425 172.397 62.9035C162.087 54.6539 151.662 51.3406 143.926 48.8823C141.826 48.2151 135.877 46.7604 123.98 43.851C108.128 39.9748 107.689 40.084 104.402 38.7847C92.1956 33.9586 84.9977 27.2104 83.1351 25.4031C79.469 21.8459 76.8671 18.407 75.1609 15.8945C75.1343 21.4949 75.831 33.0545 82.5941 44.8935C88.4694 55.1783 96.0479 60.641 101.02 64.1427C112.348 72.1204 123.243 74.7313 130.378 76.3694C135.601 77.5684 133.533 76.6414 154.152 80.0274C160.557 81.0793 168.373 82.4478 176.508 87.9407C178.01 88.9554 179.201 89.8926 180.012 90.5634Z" fill="url(#paint33_linear_2651_2)"/>
<path d="M171.772 91.7528C167.454 90.466 160.85 88.8947 152.688 88.5894C148.038 88.4155 145.371 88.7454 133.519 89.7986C119.88 91.0105 113.061 91.6164 111.262 91.5427C106.857 91.3622 96.3097 90.8153 84.6621 84.7261C74.9853 79.6672 68.4722 72.8336 64.4922 67.7227C66.4041 72.188 70.3013 79.6625 77.8048 85.9818C88.8148 95.2541 101.036 96.5208 107.105 97.1497C118.786 98.3604 131.519 96.182 134.837 95.6144C136.051 95.4067 139.183 94.8482 143.547 94.3045C150.214 93.4741 154.551 92.9582 159.963 93.4774C162.26 93.6978 165.67 94.193 169.771 95.4582C170.438 94.2231 171.105 92.988 171.772 91.7528Z" fill="url(#paint34_linear_2651_2)"/>
<path d="M127.654 87.8705C123.329 87.2917 118.373 86.3396 112.988 84.7735C107.36 83.1368 102.458 81.1771 98.3433 79.2497C94.0621 79.1624 87.8651 78.5225 80.8715 75.9335C72.526 72.844 66.6087 68.2979 63.0977 65.1289C65.701 68.5462 69.8661 73.313 75.9193 77.7362C78.3308 79.4983 89.483 87.3739 106.172 89.1776C111.112 89.7115 118.646 89.9412 127.654 87.8705Z" fill="url(#paint35_linear_2651_2)"/>
<path d="M233.707 75.7721C233.642 75.7782 233.576 75.7733 233.509 75.7563C233.191 75.6734 232.997 75.3366 233.076 75.0043C234.508 69.0083 234.586 63.0741 233.309 57.3665C230.999 47.0486 225.016 40.7994 221.441 37.0658C216.534 31.9419 211.833 29.1764 208.055 26.9544C202.655 23.7779 196.885 21.2906 190.904 19.5615C190.588 19.47 190.403 19.1284 190.49 18.7983C190.578 18.4682 190.905 18.2755 191.221 18.3661C197.295 20.122 203.154 22.648 208.638 25.8737C212.479 28.1329 217.259 30.9445 222.281 36.1881C225.705 39.7652 232.079 46.4217 234.466 57.0842C235.786 62.9854 235.707 69.1156 234.229 75.3046C234.166 75.5676 233.952 75.7489 233.707 75.7721Z" fill="url(#paint36_linear_2651_2)"/>
<path d="M220.167 77.419C219.772 77.4117 219.378 77.4044 218.983 77.3971C219.207 67.6507 215.843 58.0855 210.341 50.2907C204.326 41.7706 196.223 36.9698 187.637 31.8031C187.141 31.5051 186.649 31.2015 186.165 30.8841C185.468 30.4273 184.808 29.9994 184.171 29.5873C175.913 24.2401 168.007 18.3174 163.984 8.73433C164.337 8.57093 164.691 8.40754 165.044 8.24414C167.577 14.5177 172.319 19.574 177.576 23.6022C185.038 29.3208 193.59 33.2302 200.947 39.1767C211.768 47.9222 219.677 60.4002 220.153 74.9919C220.18 75.7965 220.184 76.602 220.167 77.419Z" fill="url(#paint37_linear_2651_2)"/>
<path d="M204.066 80.3677C203.807 80.3922 203.554 80.2363 203.457 79.9705C202.014 76.0097 200.171 72.1989 197.981 68.6439C192.072 59.0533 183.265 51.1714 171.805 45.2172C159.405 38.7757 146.263 35.7755 133.797 36.5409C133.47 36.561 133.189 36.3001 133.169 35.9582C133.15 35.6159 133.403 35.3216 133.727 35.3027C146.399 34.5246 159.749 37.5689 172.333 44.1068C183.989 50.1617 192.954 58.1915 198.98 67.9726C201.215 71.6 203.095 75.4883 204.568 79.5293C204.685 79.8493 204.53 80.2076 204.224 80.3295C204.172 80.3501 204.119 80.3626 204.066 80.3677Z" fill="url(#paint38_linear_2651_2)"/>
<path d="M187.554 89.4572C162.827 63.0341 124.191 72.6744 96.408 51.2508C87.2539 44.3773 79.6658 34.9056 75.7188 23.8497L76.8032 23.3438C84.3546 38.5542 97.6758 49.7133 112.763 55.9637C135.703 65.2991 163.259 64.5807 182.62 82.293C184.731 84.2422 186.671 86.3763 188.445 88.637L187.554 89.4572Z" fill="url(#paint39_linear_2651_2)"/>
<path d="M190.006 87.2638C180.993 75.0299 167.234 64.9393 151.263 58.8509C144.465 56.2594 137.037 54.2976 129.853 52.4003C109.272 46.9654 87.9902 41.3452 76.4531 20.2519L77.4845 19.6367C88.7712 40.2718 109.804 45.8264 130.144 51.1978C137.357 53.1026 144.815 55.0724 151.67 57.6854C167.85 63.8536 181.799 74.0893 190.948 86.5073L190.006 87.2638Z" fill="url(#paint40_linear_2651_2)"/>
<path d="M78.5977 105.142C81.2875 107.397 85.73 110.59 91.848 112.705C99.987 115.519 106.803 114.943 112.594 114.454C120.448 113.79 126.41 111.888 133.221 109.715C138.376 108.071 142.453 106.411 144.563 105.547C149.797 103.404 154.214 101.286 157.67 99.5098C154.901 99.7592 150.832 100.212 145.954 101.083C137.922 102.519 133.898 103.983 127.531 105.613C119.667 107.626 111.703 109.666 103.003 109.792C97.3176 109.875 88.8548 109.177 78.5977 105.142Z" fill="url(#paint41_linear_2651_2)"/>
<path d="M145.871 124.905C147.091 124.276 147.947 123.032 148.875 122.013L152.105 118.468C154.885 115.417 157.534 112.234 160.699 109.625C163.505 107.312 166.612 105.44 169.744 103.657C171.221 102.815 172.692 101.973 174.206 101.204C175.575 100.509 176.867 99.727 178.32 99.2316C173.638 98.7164 168.914 100.728 164.957 103.171C158.807 106.968 152.637 112.108 148.8 118.483C147.682 120.342 146.225 122.719 145.871 124.905Z" fill="url(#paint42_linear_2651_2)"/>
<path d="M137.317 130.74C139.084 129.185 140.296 126.875 141.837 125.086C145.242 121.131 148.023 116.664 151.585 112.846C157.075 106.96 163.601 102.151 171.048 99.4032C169.479 99.346 167.267 99.4134 164.707 100.004C153.255 102.644 146.021 112.991 140.609 123.01C139.798 124.512 139.067 126.068 138.431 127.658C137.928 128.916 137.561 129.986 137.317 130.74Z" fill="url(#paint43_linear_2651_2)"/>
<path d="M158.484 344.171C158.924 343.695 162.028 343.294 162.459 343.948C165.153 348.043 168.115 352.584 170.615 356.582C174.706 363.125 180.247 372.376 182.308 375.829C182.816 376.68 182.858 377.744 182.421 378.637L182.076 379.342C181.605 380.305 180.571 380.815 179.559 380.584L171.387 378.715C171.387 378.715 173.444 389.599 174.737 396.124C174.897 396.933 174.562 397.759 173.893 398.201C172.375 399.206 171.867 399.555 170.943 400.229C170.287 400.707 168.639 400.945 167.578 400.478L164.321 397.769L162.508 382.773L157.759 386.856C156.893 387.625 155.725 387.912 154.622 387.625L152.907 387.18L149.695 385.434C149.695 385.434 159.189 365.212 158.484 344.171Z" fill="url(#paint44_radial_2651_2)"/>
<path d="M159.43 345.064C160.065 345.002 160.682 345.322 161.038 345.874C163.294 349.37 164.89 351.9 167.253 355.679C171.314 362.174 177.604 372.697 179.542 375.946C179.905 376.554 179.912 377.32 179.563 377.937C179.162 378.644 178.379 379.013 177.605 378.858L169.819 377.294C169.267 377.183 168.783 377.69 168.891 378.267L171.982 394.797C172.047 395.142 171.895 395.492 171.605 395.67L166.465 398.822C166.24 398.959 165.965 398.973 165.729 398.859L164.32 397.77C164.061 397.644 163.639 397.187 163.616 396.889C163.441 394.656 162.762 385.693 160.857 380.676C160.66 380.155 160.034 379.989 159.618 380.342C159.39 380.536 159.191 380.702 159.148 380.74C158.72 381.12 158.292 381.501 157.863 381.881C157.007 382.642 156.15 383.403 155.294 384.163C154.205 385.119 153.427 385.881 152.315 386.808C152.126 386.966 151.861 387.007 151.602 386.835C150.856 386.34 149.787 385.723 149.694 385.435C149.617 385.195 149.631 384.891 149.688 384.694C149.769 384.418 149.907 384.15 149.986 383.873C150.147 383.308 150.306 382.742 150.46 382.175C150.607 381.639 150.751 381.102 150.893 380.566C150.965 380.297 151.036 380.029 151.106 379.76C151.169 379.521 151.318 379.201 151.318 378.955C151.886 376.792 152.429 374.623 152.946 372.446C153.465 370.265 153.958 368.077 154.425 365.883C154.894 363.683 155.337 361.476 155.754 359.264C156.173 357.044 156.566 354.818 156.933 352.587C157.302 350.347 157.644 348.101 157.961 345.852C158.004 345.547 157.965 345.831 158.007 345.527C158.023 345.411 158.565 345.149 159.43 345.064Z" fill="#FCFAF3"/>
<path d="M167.642 375.123C170.274 375.649 172.907 376.174 175.539 376.7C176.165 376.825 176.639 376.118 176.311 375.546C170.6 365.574 164.889 355.602 159.178 345.63C158.834 345.03 157.965 345.178 157.822 345.861C155.216 358.303 152.609 370.746 150.003 383.189C149.851 383.913 150.67 384.422 151.207 383.937C153.741 381.652 156.274 379.367 158.808 377.082C159.238 376.695 159.908 376.937 160.016 377.519C161.216 383.976 162.415 390.433 163.615 396.89C163.71 397.404 164.258 397.671 164.697 397.418C166.215 396.542 167.733 395.666 169.25 394.79C169.524 394.633 169.673 394.312 169.622 393.99C168.673 387.995 167.724 382.001 166.775 376.006C166.691 375.477 167.138 375.022 167.642 375.123Z" fill="#171A21"/>
<path d="M160.692 317.191C160.314 316.914 159.859 316.896 159.408 317.137C157.702 318.053 157.434 320.91 157.238 322.996C157.205 323.34 157.176 323.654 157.142 323.917C156.478 329.118 158.288 339.036 158.365 339.455C158.417 339.735 158.644 339.943 158.917 339.957C158.928 339.958 158.938 339.958 158.949 339.958C159.209 339.958 159.44 339.781 159.517 339.519C159.544 339.427 160.073 337.615 160.359 336.558C160.364 336.542 160.368 336.527 160.372 336.512C160.393 336.432 160.413 336.359 160.431 336.29C160.437 336.267 160.443 336.244 160.449 336.222C160.469 336.143 160.487 336.071 160.501 336.013C160.503 336.007 160.504 336.001 160.505 335.995C160.927 334.225 161.256 332.39 161.483 330.541C161.498 330.424 162.826 318.754 160.692 317.191ZM160.305 330.383C160.083 332.191 159.761 333.984 159.349 335.712C159.348 335.715 159.347 335.72 159.346 335.724C159.299 335.917 159.212 336.24 159.108 336.615C159.107 336.617 159.107 336.619 159.106 336.622C158.602 333.28 157.883 327.502 158.32 324.082C158.355 323.806 158.386 323.478 158.42 323.117C158.57 321.52 158.821 318.847 159.951 318.24C159.988 318.22 160.012 318.213 160.015 318.209C160.916 318.758 160.836 326.06 160.305 330.383Z" fill="black"/>
<path d="M158.32 324.082C158.355 323.806 158.386 323.478 158.42 323.117C158.57 321.52 158.821 318.847 159.951 318.24C159.988 318.22 160.012 318.213 160.015 318.209C160.916 318.758 160.836 326.06 160.305 330.383C160.149 331.655 159.941 332.919 159.689 334.159C160.091 334.196 160.481 334.278 160.854 334.402C161.111 333.133 161.324 331.841 161.484 330.541C161.498 330.424 162.826 318.754 160.692 317.191C160.314 316.914 159.859 316.896 159.408 317.137C157.702 318.053 157.434 320.91 157.238 322.996C157.205 323.34 157.176 323.654 157.142 323.917C156.778 326.773 157.159 331.048 157.59 334.395C157.965 334.271 158.358 334.193 158.763 334.158C158.346 330.889 157.977 326.763 158.32 324.082Z" fill="black"/>
<path d="M160.851 334.402C160.479 334.278 160.089 334.197 159.686 334.16C159.529 334.145 159.371 334.135 159.21 334.135C159.058 334.135 158.909 334.146 158.761 334.158C158.876 335.06 158.858 334.966 158.967 335.689C158.967 335.686 159.224 335.712 159.343 335.724C159.755 335.767 160.142 335.857 160.503 335.995C161.595 336.414 162.429 337.261 162.822 338.545C163.149 339.615 162.993 340.829 162.407 341.782C161.717 342.903 160.503 343.603 159.183 343.606C158.543 343.607 157.901 343.451 157.334 343.132C156.745 342.801 156.25 342.308 155.911 341.725C154.842 339.882 155.317 336.917 157.79 335.953L157.999 337.302C156.428 338.325 156.479 341.077 158.034 341.929C159.838 342.917 161.895 341.186 161.567 339.254C161.434 338.468 160.898 337.626 160.162 337.262C160.046 337.186 159.782 337.089 159.502 337.052C159.36 337.033 159.239 337.032 159.153 337.036C159.233 337.739 159.288 338.149 159.323 338.4C159.446 339.3 159.542 339.628 159.279 339.848C159.183 339.917 159.068 339.959 158.946 339.959C158.936 339.959 158.925 339.959 158.914 339.958C158.642 339.943 158.414 339.736 158.363 339.456C158.328 339.267 157.941 337.144 157.587 334.395C155.402 335.114 153.816 337.247 153.816 339.766C153.816 342.877 156.231 345.398 159.21 345.398C162.188 345.398 164.603 342.877 164.603 339.766C164.603 337.254 163.027 335.127 160.851 334.402Z" fill="#171A21"/>
<path d="M272.653 325.273C275.564 324.136 280.6 337.19 281.478 339.136C284.408 345.627 287.441 352.066 290.476 358.503C290.966 359.545 297.507 372.316 296.864 372.783C298.753 371.411 301.702 369.597 305.605 368.461C307.155 368.009 313.239 366.389 323.525 369.103C335.412 372.241 349.625 383.76 349.625 383.76C349.625 383.76 334.42 373.663 317.245 374.281C299.121 374.933 293.04 394.288 284.674 407.506C284.112 408.393 276.883 420.532 276.576 420.3C277.935 421.329 279.427 422.661 280.874 424.373C285.014 429.271 286.532 434.613 287.146 437.746C287.066 437.337 286.335 436.757 286.153 436.376C284.134 432.146 282.195 429.229 279.681 425.93C278.148 423.918 275.404 422.271 273.102 421.225C271.639 420.56 270.122 420.02 268.566 419.648C267.056 419.286 265.45 418.984 263.902 419.239C264.435 419.077 265.603 417.691 265.603 417.691C265.603 417.691 266.452 417.708 266.577 417.711C267.092 417.721 267.603 417.751 268.117 417.792C269.121 417.871 270.123 417.974 271.123 418.095C271.566 418.149 272.008 418.197 272.45 418.261C272.629 418.288 273.801 418.614 273.892 418.519C275.293 417.062 276.307 414.865 277.433 413.168C278.959 410.867 280.498 408.58 281.96 406.233C286.923 398.262 293.668 389.442 293.757 379.466C293.806 374.057 290.54 369.196 288.398 364.465C287.181 361.777 271.992 325.532 272.653 325.273Z" fill="#050A13"/>
<path d="M289.163 636.551L289.137 636.526C289.109 636.501 301.74 615.221 302.762 613.127C306.859 604.73 309.325 596.17 311.152 586.979C311.284 586.316 311.517 585.533 312.144 585.355C312.716 585.194 313.305 585.687 313.494 586.273C313.683 586.859 313.577 587.499 313.464 588.106C311.751 597.32 308.62 606.209 304.604 614.591C300.7 622.736 295.458 630.404 290.802 638.091C290.256 637.578 289.709 637.064 289.163 636.551Z" fill="#23242C"/>
<path d="M260.731 443.196C260.464 443.066 258.833 445.972 257.591 448.626C255.488 453.119 254.387 457.127 253.773 459.975C254.305 460.796 254.837 461.617 255.369 462.438C255.884 459.781 256.72 456.021 258.082 451.598C259.577 446.738 261.012 443.332 260.731 443.196Z" fill="#050A13"/>
<path d="M266.227 472.502C266.379 470.355 266.721 467.891 267.402 465.225C268.984 459.031 271.719 454.395 273.878 451.393C272.733 453.946 271.583 456.855 270.542 460.102C269.379 463.731 268.565 467.116 267.991 470.143C268.116 470.417 268.327 470.8 268.678 471.168C269.672 472.212 271.036 472.342 271.916 472.397C275.018 472.591 276.642 472.693 279.373 472.09C281.687 471.579 284.783 470.896 287.91 468.401C289.415 467.2 290.468 465.947 291.148 465.02C291.724 465.106 292.656 465.203 293.797 465.123C293.797 465.123 295.169 465.026 296.545 464.61C306.28 461.667 315.777 455.491 315.777 455.491C323.897 450.21 329.548 446.493 334.021 443.529C332.222 445.146 329.786 447.245 326.802 449.563C320.519 454.443 315.409 457.495 314.089 458.274C310.348 460.481 306.336 462.823 300.622 464.963C297.337 466.193 294.498 466.978 292.424 467.479C291.564 468.289 290.34 469.343 288.761 470.405C288.423 470.633 285.033 472.885 281.46 473.918C274.769 475.852 268.145 473.306 266.227 472.502Z" fill="#050A13"/>
<path d="M227.83 641.47C227.621 641.47 227.409 641.412 227.217 641.292C213.057 632.359 203.407 625.151 198.535 619.866C198.08 619.372 198.095 618.587 198.567 618.112C199.04 617.638 199.792 617.652 200.247 618.146C204.975 623.275 214.463 630.347 228.445 639.168C229.007 639.522 229.187 640.285 228.848 640.871C228.625 641.257 228.232 641.47 227.83 641.47Z" fill="#000814"/>
<path d="M309.053 271.881C305.93 270.928 302.658 271.202 299.87 271.596C282.254 274.087 265.938 282.586 250.16 290.804C247.266 292.312 244.273 293.871 241.364 295.342C223.551 304.347 205.409 313.515 186.036 318.249C177.927 320.231 169.085 322.289 160.804 320.299C152.017 318.188 145.991 311.2 142.252 302.936C139.85 297.628 138.385 291.911 137.195 286.173C135.183 276.472 133.619 256.707 133.619 256.707L132.77 258C132.77 258 132.805 261.128 132.867 262.409C133.367 272.677 134.52 283.049 137.004 292.998C138.319 298.266 139.94 303.498 142.509 308.236C145.079 312.974 148.658 317.221 153.226 319.847C162.665 325.271 174.008 323.604 184.049 321.27C205.401 316.306 225.11 306.343 242.499 297.552C245.422 296.075 248.422 294.512 251.322 293.001C266.913 284.88 283.034 276.483 300.223 274.052C302.738 273.697 305.703 273.331 308.318 274.252C311.261 275.288 311.366 277.197 312.04 277.038C312.711 276.88 312.551 272.948 309.053 271.881Z" fill="black"/>
<path d="M4.3634 309.818C5.1402 311.05 6.58223 312.944 8.96753 314.249C9.82973 314.72 10.6321 315.015 11.5857 315.286C15.6766 316.449 19.4751 316.309 20.9746 316.229C27.3327 315.886 30.5118 315.715 33.7943 313.401C35.2262 312.391 37.5806 310.731 38.0375 307.838C38.5121 304.834 36.657 302.289 35.9611 301.334C35.5296 300.742 34.234 299.009 31.8984 298.034C31.017 297.666 30.2944 297.534 29.9124 297.468C24.182 296.491 20.2524 296.714 20.2524 296.714C17.1521 296.89 12.5242 296.902 5.26599 296.337C10.9536 295.96 16.6413 295.583 22.3289 295.206C26.2473 295.203 29.4241 294.83 31.7179 294.452C33.4402 294.168 34.7004 293.874 35.8708 292.849C36.1474 292.607 38.198 290.812 38.218 288.135C38.2248 287.226 38.0005 285.854 35.8708 283.233C34.4741 281.514 32.0587 279.013 28.1975 276.885C29.7263 277.164 31.841 277.791 33.975 279.274C35.3455 280.226 37.736 281.887 38.8501 285.119C39.2471 286.271 40.0939 288.727 39.1208 290.964C38.8194 291.657 38.5781 291.789 36.5028 295.206C35.9233 296.16 35.7108 296.531 35.6903 297.091C35.6406 298.446 36.7761 299.166 37.8569 300.579C38.0757 300.866 40.1691 303.67 40.1139 306.801C40.0674 309.438 38.5149 311.348 37.7666 312.269C35.8625 314.612 33.6049 315.499 31.1763 316.417C25.7496 318.469 21.1141 318.323 18.3566 318.208C14.5448 318.05 12.6127 317.97 10.3217 316.7C6.81756 314.758 5.0928 311.485 4.3634 309.818Z" fill="#050A13"/>
<path d="M55.0227 305.215C54.8233 306.274 54.4922 307.817 53.9475 309.641C53.0361 312.693 52.2223 315.418 50.1632 318.064C49.4311 319.005 48.2291 320.337 46.3789 321.6C47.7847 321.086 50.2689 319.942 52.4537 317.44C56.3133 313.021 56.3616 307.66 56.3362 306.315C55.8984 305.948 55.4605 305.581 55.0227 305.215Z" fill="#050A13"/>
<path d="M72.5703 316.056C73.4359 317.059 74.3955 318.084 75.458 319.106C78.7916 322.313 82.1745 324.575 85.118 326.177C83.3476 324.858 81.4664 323.328 79.5372 321.558C77.1728 319.39 75.1498 317.243 73.4357 315.236C73.1473 315.51 72.8588 315.783 72.5703 316.056Z" fill="#050A13"/>
<path d="M194.779 164.228C197.168 164.228 199.105 162.205 199.105 159.711C199.105 157.216 197.168 155.193 194.779 155.193C192.39 155.193 190.453 157.216 190.453 159.711C190.453 162.205 192.39 164.228 194.779 164.228Z" fill="white"/>
<path d="M127.392 171.283C129.782 171.283 131.718 169.26 131.718 166.765C131.718 164.271 129.782 162.248 127.392 162.248C125.003 162.248 123.066 164.271 123.066 166.765C123.066 169.26 125.003 171.283 127.392 171.283Z" fill="white"/>
<path d="M135.73 289.803C135.365 287.942 135.033 286.03 134.751 284.12C132.831 271.13 132.998 257.656 132.998 257.656L132.575 258.262C132.575 258.262 131.686 276.569 134.565 292.178C134.689 291.934 134.812 291.684 134.925 291.427C135.176 290.857 135.456 290.29 135.73 289.803Z" fill="#212121"/>
<path d="M244.49 297.533C244.49 297.533 215.934 311.858 197.847 318.693C183.842 323.985 163.661 328.463 151.725 320.071C146.113 316.125 141.998 309.658 139.372 303.147C138.086 299.958 136.769 295.088 135.731 289.803C135.457 290.29 135.177 290.856 134.926 291.426C134.813 291.683 134.69 291.933 134.566 292.177C135.347 296.409 136.402 300.444 137.83 303.86C141.959 313.739 148.465 322.896 159.167 325.337C173.322 328.564 189.157 324.353 202.304 319.141C221.087 311.695 245.521 299.64 245.521 299.64C245.163 298.914 244.49 297.533 244.49 297.533Z" fill="url(#paint45_radial_2651_2)"/>
<defs>
<radialGradient id="paint0_radial_2651_2" cx="0" cy="0" r="1" gradientUnits="userSpaceOnUse" gradientTransform="translate(183.046 678.389) scale(114.952 120.042)">
<stop offset="0.4669" stop-color="#FABA3A"/>
<stop offset="0.6738" stop-color="#FDAB31"/>
<stop offset="0.7223" stop-color="#F29E2C"/>
<stop offset="0.7884" stop-color="#DF8724"/>
<stop offset="0.834" stop-color="#D97F1E"/>
<stop offset="0.8913" stop-color="#CE6F12"/>
<stop offset="1" stop-color="#8C4E0F"/>
</radialGradient>
<radialGradient id="paint1_radial_2651_2" cx="0" cy="0" r="1" gradientUnits="userSpaceOnUse" gradientTransform="translate(230.942 524.414) rotate(84.5298) scale(153.958 165.048)">
<stop offset="0.7891" stop-color="#AA5802"/>
<stop offset="0.881" stop-color="#83470C"/>
<stop offset="0.9057" stop-color="#81450B"/>
<stop offset="0.9146" stop-color="#7A400B"/>
<stop offset="0.921" stop-color="#6E380A"/>
<stop offset="0.9261" stop-color="#5D2C09"/>
<stop offset="0.9305" stop-color="#471C08"/>
<stop offset="0.9323" stop-color="#3C1408"/>
</radialGradient>
<radialGradient id="paint2_radial_2651_2" cx="0" cy="0" r="1" gradientUnits="userSpaceOnUse" gradientTransform="translate(70.7129 685.305) scale(116.976 120.049)">
<stop offset="0.4669" stop-color="#FABA3A"/>
<stop offset="0.6738" stop-color="#FDAB31"/>
<stop offset="0.7223" stop-color="#F29E2C"/>
<stop offset="0.7884" stop-color="#DF8724"/>
<stop offset="0.834" stop-color="#D97F1E"/>
<stop offset="0.8913" stop-color="#CE6F12"/>
<stop offset="1" stop-color="#8C4E0F"/>
</radialGradient>
<radialGradient id="paint3_radial_2651_2" cx="0" cy="0" r="1" gradientUnits="userSpaceOnUse" gradientTransform="translate(117.147 547.546) rotate(95.277) scale(141.071 220.216)">
<stop offset="0.7271" stop-color="#AA5802"/>
<stop offset="0.8553" stop-color="#83470C"/>
<stop offset="0.8924" stop-color="#81450B"/>
<stop offset="0.9058" stop-color="#7A400B"/>
<stop offset="0.9153" stop-color="#6E380A"/>
<stop offset="0.923" stop-color="#5D2C09"/>
<stop offset="0.9295" stop-color="#471C08"/>
<stop offset="0.9323" stop-color="#3C1408"/>
</radialGradient>
<radialGradient id="paint4_radial_2651_2" cx="0" cy="0" r="1" gradientUnits="userSpaceOnUse" gradientTransform="translate(155.809 358.742) rotate(-152.073) scale(162.793 71.5248)">
<stop offset="0.1136" stop-color="#4D4746"/>
<stop offset="0.1334" stop-color="#4C4645"/>
<stop offset="0.4608" stop-color="#4B4442"/>
<stop offset="0.6367" stop-color="#3B393D"/>
<stop offset="0.7639" stop-color="#2E2F39"/>
<stop offset="0.8621" stop-color="#212834"/>
<stop offset="0.9644" stop-color="#10202D"/>
</radialGradient>
<radialGradient id="paint5_radial_2651_2" cx="0" cy="0" r="1" gradientUnits="userSpaceOnUse" gradientTransform="translate(110.545 423.993) scale(274.951 287.155)">
<stop offset="0.3291" stop-color="#4F4A4A"/>
<stop offset="0.5884" stop-color="#4B4442"/>
<stop offset="0.7287" stop-color="#2E2F39"/>
<stop offset="0.7983" stop-color="#212834"/>
<stop offset="0.8707" stop-color="#10202D"/>
<stop offset="1" stop-color="#050A13"/>
</radialGradient>
<radialGradient id="paint6_radial_2651_2" cx="0" cy="0" r="1" gradientUnits="userSpaceOnUse" gradientTransform="translate(84.5144 265.454) rotate(66.2927) scale(298.072 181.39)">
<stop offset="0.3291" stop-color="#FDFDFD"/>
<stop offset="0.5878" stop-color="#FDFDFD"/>
<stop offset="0.7727" stop-color="#D1D5E2"/>
<stop offset="0.8536" stop-color="#C8C8DC"/>
<stop offset="0.9292" stop-color="#BEB9D5"/>
</radialGradient>
<radialGradient id="paint7_radial_2651_2" cx="0" cy="0" r="1" gradientUnits="userSpaceOnUse" gradientTransform="translate(120.809 291.242) rotate(33.7769) scale(236.661 219.816)">
<stop offset="0.3291" stop-color="#4F4A4A"/>
<stop offset="0.565669" stop-color="#4B4442"/>
<stop offset="0.732426" stop-color="#2E2F39"/>
<stop offset="0.861404" stop-color="#212834"/>
<stop offset="1" stop-color="#10202D"/>
</radialGradient>
<radialGradient id="paint8_radial_2651_2" cx="0" cy="0" r="1" gradientUnits="userSpaceOnUse" gradientTransform="translate(138.985 254.741) rotate(-7.25389) scale(1.15187 1.20115)">
<stop offset="0.4421" stop-color="#E7E9F0"/>
<stop offset="0.9326" stop-color="#E5E7EE"/>
</radialGradient>
<radialGradient id="paint9_radial_2651_2" cx="0" cy="0" r="1" gradientUnits="userSpaceOnUse" gradientTransform="translate(165.821 141.07) rotate(-7.2539) scale(140.225 146.224)">
<stop offset="0.3291" stop-color="#FDFDFD"/>
<stop offset="0.582" stop-color="#FDFDFD"/>
<stop offset="0.8406" stop-color="#D1D5E2"/>
<stop offset="0.9223" stop-color="#C8C8DC"/>
<stop offset="0.9987" stop-color="#BEB9D5"/>
</radialGradient>
<linearGradient id="paint10_linear_2651_2" x1="257.953" y1="156.778" x2="294.041" y2="152.379" gradientUnits="userSpaceOnUse">
<stop offset="0.139" stop-color="#151716"/>
<stop offset="0.3156" stop-color="#0F1418"/>
<stop offset="0.5849" stop-color="#090D0F"/>
<stop offset="0.8406" stop-color="#060F17"/>
<stop offset="0.9987" stop-color="#020A16"/>
</linearGradient>
<radialGradient id="paint11_radial_2651_2" cx="0" cy="0" r="1" gradientUnits="userSpaceOnUse" gradientTransform="translate(95.9586 151.285) rotate(-6.3037) scale(55.8092 50.8604)">
<stop offset="0.3593" stop-color="#EEEFF4"/>
<stop offset="0.633" stop-color="#FDFDFD"/>
<stop offset="0.6994" stop-color="#F0F1F2"/>
<stop offset="0.8201" stop-color="#D0D1D7"/>
<stop offset="0.9062" stop-color="#B5B7C1"/>
</radialGradient>
<radialGradient id="paint12_radial_2651_2" cx="0" cy="0" r="1" gradientUnits="userSpaceOnUse" gradientTransform="translate(161.381 127.379) rotate(-7.25391) scale(82.5937 86.1275)">
<stop offset="0.5652" stop-color="#F1F2F6"/>
<stop offset="0.7658" stop-color="#FDFDFD"/>
<stop offset="0.8221" stop-color="#F0F1F2"/>
<stop offset="0.9244" stop-color="#D0D1D7"/>
<stop offset="0.9974" stop-color="#B5B7C1"/>
</radialGradient>
<radialGradient id="paint13_radial_2651_2" cx="0" cy="0" r="1" gradientTransform="matrix(3 12 -10.5417 2.63539 126.31 172.242)" gradientUnits="userSpaceOnUse">
<stop offset="0.7658" stop-color="#38655F"/>
<stop offset="0.8199" stop-color="#3C6F6B"/>
<stop offset="0.8643" stop-color="#427C79"/>
<stop offset="0.9336" stop-color="#214848"/>
<stop offset="1" stop-color="#092326"/>
</radialGradient>
<linearGradient id="paint14_linear_2651_2" x1="218.547" y1="176.326" x2="261.468" y2="171.094" gradientUnits="userSpaceOnUse">
<stop offset="0.5853" stop-color="#D1D5E2"/>
<stop offset="0.5986" stop-color="#CDD2E1"/>
<stop offset="0.6963" stop-color="#BAC3DF"/>
<stop offset="0.7958" stop-color="#AEBADE"/>
<stop offset="0.8992" stop-color="#ABB7DE"/>
</linearGradient>
<radialGradient id="paint15_radial_2651_2" cx="0" cy="0" r="1" gradientUnits="userSpaceOnUse" gradientTransform="translate(129.674 147.163) rotate(-7.25389) scale(29.2171 30.4671)">
<stop offset="0.3291" stop-color="#FEFDFC"/>
<stop offset="0.6916" stop-color="#FDFDFD"/>
<stop offset="0.7762" stop-color="#D1D5E2"/>
<stop offset="0.8261" stop-color="#C4CBE0"/>
<stop offset="0.8992" stop-color="#ABB7DE"/>
</radialGradient>
<radialGradient id="paint16_radial_2651_2" cx="0" cy="0" r="1" gradientUnits="userSpaceOnUse" gradientTransform="translate(233.251 140.253) rotate(-5.4101) scale(9.77117 10.1954)">
<stop offset="0.7274" stop-color="white"/>
<stop offset="0.7605" stop-color="#F2F2F2"/>
<stop offset="0.8211" stop-color="#D2D2D1"/>
<stop offset="0.9022" stop-color="#9D9D9C"/>
<stop offset="1" stop-color="#565654"/>
</radialGradient>
<radialGradient id="paint17_radial_2651_2" cx="0" cy="0" r="1" gradientUnits="userSpaceOnUse" gradientTransform="translate(82.1711 151.902) rotate(-5.41001) scale(10.1894 10.6319)">
<stop offset="0.7274" stop-color="white"/>
<stop offset="0.7605" stop-color="#F2F2F2"/>
<stop offset="0.8211" stop-color="#D2D2D1"/>
<stop offset="0.9022" stop-color="#9D9D9C"/>
<stop offset="1" stop-color="#565654"/>
</radialGradient>
<radialGradient id="paint18_radial_2651_2" cx="0" cy="0" r="1" gradientUnits="userSpaceOnUse" gradientTransform="translate(199.519 168.455) rotate(-5.41009) scale(30.1322 31.4406)">
<stop offset="0.7081" stop-color="#626D6F"/>
<stop offset="0.7667" stop-color="#566062"/>
<stop offset="0.8732" stop-color="#384043"/>
<stop offset="0.9653" stop-color="#1A1F23"/>
</radialGradient>
<radialGradient id="paint19_radial_2651_2" cx="0" cy="0" r="1" gradientUnits="userSpaceOnUse" gradientTransform="translate(115.306 167.805) rotate(-5.4101) scale(33.3463 34.7944)">
<stop offset="0.6835" stop-color="#0F140F"/>
<stop offset="0.7129" stop-color="#262C29"/>
<stop offset="0.7759" stop-color="#626C6D"/>
<stop offset="0.7944" stop-color="#758083"/>
<stop offset="0.8304" stop-color="#6C7779"/>
<stop offset="0.8589" stop-color="#626D6F"/>
<stop offset="0.8753" stop-color="#566062"/>
<stop offset="0.9052" stop-color="#384043"/>
<stop offset="0.931" stop-color="#1A1F23"/>
</radialGradient>
<radialGradient id="paint20_radial_2651_2" cx="0" cy="0" r="1" gradientUnits="userSpaceOnUse" gradientTransform="translate(195.222 164.165) rotate(75.7094) scale(14.5275 13.6264)">
<stop offset="0.7658" stop-color="#38655F"/>
<stop offset="0.8199" stop-color="#3C6F6B"/>
<stop offset="0.8643" stop-color="#427C79"/>
<stop offset="0.9336" stop-color="#214848"/>
<stop offset="1" stop-color="#092326"/>
</radialGradient>
<radialGradient id="paint21_radial_2651_2" cx="0" cy="0" r="1" gradientUnits="userSpaceOnUse" gradientTransform="translate(215.308 141.084) rotate(-7.2539) scale(33.7292 35.1723)">
<stop offset="0.6405" stop-color="#201B1B"/>
<stop offset="1" stop-color="#5B3726"/>
</radialGradient>
<linearGradient id="paint22_linear_2651_2" x1="188.993" y1="210.362" x2="154.951" y2="230.743" gradientUnits="userSpaceOnUse">
<stop offset="0.0072" stop-color="#552432"/>
<stop offset="0.4184" stop-color="#A72C2A"/>
<stop offset="0.764" stop-color="#D8603E"/>
<stop offset="0.9974" stop-color="#D7603B"/>
</linearGradient>
<radialGradient id="paint23_radial_2651_2" cx="0" cy="0" r="1" gradientUnits="userSpaceOnUse" gradientTransform="translate(162.129 207.445) rotate(82.2905) scale(32.7723 33.4184)">
<stop offset="0.3377" stop-color="#FFDE6F"/>
<stop offset="0.7293" stop-color="#FEBF3B"/>
<stop offset="0.8056" stop-color="#F27726"/>
</radialGradient>
<linearGradient id="paint24_linear_2651_2" x1="138.475" y1="185.137" x2="181.603" y2="209.232" gradientUnits="userSpaceOnUse">
<stop offset="0.0072" stop-color="#FFDE6F"/>
<stop offset="0.1005" stop-color="#EDE871"/>
<stop offset="0.187" stop-color="#FDC848"/>
<stop offset="0.4246" stop-color="#FEBF3B"/>
<stop offset="0.7658" stop-color="#F8BC35"/>
<stop offset="0.9166" stop-color="#F1B228"/>
<stop offset="0.9974" stop-color="#EDAC20"/>
</linearGradient>
<radialGradient id="paint25_radial_2651_2" cx="0" cy="0" r="1" gradientUnits="userSpaceOnUse" gradientTransform="translate(137.071 145.719) rotate(-7.2539) scale(24.8845 25.9491)">
<stop offset="0.6405" stop-color="#201B1B"/>
<stop offset="1" stop-color="#5B3726"/>
</radialGradient>
<linearGradient id="paint26_linear_2651_2" x1="125.058" y1="-3.08105" x2="173.2" y2="73.9174" gradientUnits="userSpaceOnUse">
<stop offset="0.1598" stop-color="#201C23"/>
<stop offset="0.2787" stop-color="#2F292C"/>
<stop offset="0.3002" stop-color="#2A2428"/>
<stop offset="0.3962" stop-color="#19151B"/>
<stop offset="0.4675" stop-color="#131017"/>
<stop offset="0.6095" stop-color="#190D14"/>
<stop offset="0.7284" stop-color="#201318"/>
<stop offset="0.7865" stop-color="#241920"/>
<stop offset="0.9046" stop-color="#060002"/>
</linearGradient>
<linearGradient id="paint27_linear_2651_2" x1="249.129" y1="80.992" x2="274.383" y2="58.7" gradientUnits="userSpaceOnUse">
<stop offset="0.0089" stop-color="#020203"/>
<stop offset="0.1314" stop-color="#171517"/>
<stop offset="0.1905" stop-color="#2F2B27"/>
<stop offset="0.2482" stop-color="#403A32"/>
<stop offset="0.291" stop-color="#474036"/>
<stop offset="0.4099" stop-color="#3D352D"/>
<stop offset="0.4516" stop-color="#393129"/>
<stop offset="0.6244" stop-color="#2E221B"/>
<stop offset="1" stop-color="#2F2822"/>
</linearGradient>
<linearGradient id="paint28_linear_2651_2" x1="244.647" y1="77.285" x2="239.159" y2="35.4256" gradientUnits="userSpaceOnUse">
<stop offset="0.0121" stop-color="#25202A"/>
<stop offset="0.1313" stop-color="#2F2229"/>
<stop offset="0.2831" stop-color="#342623"/>
<stop offset="0.4134" stop-color="#3B2D2D"/>
<stop offset="0.4501" stop-color="#3E3131"/>
<stop offset="0.62" stop-color="#302225"/>
<stop offset="0.7272" stop-color="#23181A"/>
<stop offset="0.8031" stop-color="#180F10"/>
<stop offset="1" stop-color="#0F1214"/>
</linearGradient>
<linearGradient id="paint29_linear_2651_2" x1="223.256" y1="72.4075" x2="169.023" y2="11.2757" gradientUnits="userSpaceOnUse">
<stop offset="0.1081" stop-color="#030306"/>
<stop offset="0.1914" stop-color="#2D262F"/>
<stop offset="0.2137" stop-color="#3B3236"/>
<stop offset="0.2643" stop-color="#574945"/>
<stop offset="0.3087" stop-color="#68574D"/>
<stop offset="0.3416" stop-color="#6F5D51"/>
<stop offset="0.4233" stop-color="#79624A"/>
<stop offset="0.4576" stop-color="#7F6647"/>
<stop offset="0.6321" stop-color="#6D523B"/>
<stop offset="0.7048" stop-color="#60493B"/>
<stop offset="0.7766" stop-color="#503F3B"/>
<stop offset="0.9626" stop-color="#060002"/>
</linearGradient>
<linearGradient id="paint30_linear_2651_2" x1="239.087" y1="67.9491" x2="192.861" y2="23.0588" gradientUnits="userSpaceOnUse">
<stop offset="0.1081" stop-color="#030306"/>
<stop offset="0.1914" stop-color="#2D262F"/>
<stop offset="0.2137" stop-color="#3B3236"/>
<stop offset="0.2643" stop-color="#574945"/>
<stop offset="0.3087" stop-color="#68574D"/>
<stop offset="0.3416" stop-color="#6F5D51"/>
<stop offset="0.4233" stop-color="#79624A"/>
<stop offset="0.4576" stop-color="#7F6647"/>
<stop offset="0.6321" stop-color="#6D523B"/>
<stop offset="0.7048" stop-color="#60493B"/>
<stop offset="0.7766" stop-color="#503F3B"/>
<stop offset="0.9626" stop-color="#060002"/>
</linearGradient>
<linearGradient id="paint31_linear_2651_2" x1="180.816" y1="40.0179" x2="134.537" y2="16.1426" gradientUnits="userSpaceOnUse">
<stop offset="0.0908" stop-color="#1D1714"/>
<stop offset="0.1755" stop-color="#2E2222"/>
<stop offset="0.2815" stop-color="#322224"/>
<stop offset="0.3952" stop-color="#3A2C2D"/>
<stop offset="0.4581" stop-color="#423435"/>
<stop offset="0.6293" stop-color="#3A2E31"/>
<stop offset="0.722" stop-color="#2D2928"/>
<stop offset="0.738" stop-color="#2B2827"/>
<stop offset="0.9655" stop-color="#241C1D"/>
</linearGradient>
<linearGradient id="paint32_linear_2651_2" x1="203.791" y1="73.3757" x2="133.522" y2="27.585" gradientUnits="userSpaceOnUse">
<stop offset="0.1081" stop-color="#030306"/>
<stop offset="0.1914" stop-color="#2D262F"/>
<stop offset="0.2137" stop-color="#3B3236"/>
<stop offset="0.2643" stop-color="#574945"/>
<stop offset="0.3087" stop-color="#68574D"/>
<stop offset="0.3416" stop-color="#6F5D51"/>
<stop offset="0.4233" stop-color="#79624A"/>
<stop offset="0.4576" stop-color="#7F6647"/>
<stop offset="0.6321" stop-color="#6D523B"/>
<stop offset="0.7048" stop-color="#60493B"/>
<stop offset="0.7766" stop-color="#503F3B"/>
<stop offset="0.9626" stop-color="#060002"/>
</linearGradient>
<linearGradient id="paint33_linear_2651_2" x1="183.413" y1="88.1293" x2="65.9308" y2="25.3645" gradientUnits="userSpaceOnUse">
<stop offset="0.1081" stop-color="#030306"/>
<stop offset="0.1914" stop-color="#2D262F"/>
<stop offset="0.2137" stop-color="#3B3236"/>
<stop offset="0.2643" stop-color="#574945"/>
<stop offset="0.3087" stop-color="#68574D"/>
<stop offset="0.3416" stop-color="#6F5D51"/>
<stop offset="0.4233" stop-color="#79624A"/>
<stop offset="0.4576" stop-color="#7F6647"/>
<stop offset="0.6005" stop-color="#6D523B"/>
<stop offset="0.6631" stop-color="#60493B"/>
<stop offset="0.725" stop-color="#503F3B"/>
<stop offset="0.9056" stop-color="#060002"/>
</linearGradient>
<linearGradient id="paint34_linear_2651_2" x1="160.911" y1="104.627" x2="66.604" y2="66.6171" gradientUnits="userSpaceOnUse">
<stop offset="0.1081" stop-color="#030306"/>
<stop offset="0.1914" stop-color="#342727"/>
<stop offset="0.278" stop-color="#44342A"/>
<stop offset="0.3428" stop-color="#4B392C"/>
<stop offset="0.4376" stop-color="#554032"/>
<stop offset="0.4576" stop-color="#584234"/>
<stop offset="0.6005" stop-color="#6D523B"/>
<stop offset="0.6631" stop-color="#60493B"/>
<stop offset="0.725" stop-color="#503F3B"/>
<stop offset="0.9056" stop-color="#060002"/>
</linearGradient>
<linearGradient id="paint35_linear_2651_2" x1="129.094" y1="90.3318" x2="61.3963" y2="71.0008" gradientUnits="userSpaceOnUse">
<stop offset="0.1081" stop-color="#030306"/>
<stop offset="0.1914" stop-color="#2D262F"/>
<stop offset="0.1986" stop-color="#2E262E"/>
<stop offset="0.2806" stop-color="#3F2E2D"/>
<stop offset="0.3416" stop-color="#46312D"/>
<stop offset="0.4505" stop-color="#493830"/>
<stop offset="0.6041" stop-color="#503A2F"/>
<stop offset="0.6758" stop-color="#433027"/>
<stop offset="0.8061" stop-color="#231613"/>
<stop offset="0.9056" stop-color="#060002"/>
</linearGradient>
<linearGradient id="paint36_linear_2651_2" x1="241.924" y1="71.2104" x2="191.491" y2="16.6055" gradientUnits="userSpaceOnUse">
<stop offset="0.0908" stop-color="#030203"/>
<stop offset="0.1726" stop-color="#2D262F"/>
<stop offset="0.209" stop-color="#31242A"/>
<stop offset="0.2879" stop-color="#362324"/>
<stop offset="0.3678" stop-color="#402A26"/>
<stop offset="0.4569" stop-color="#51382A"/>
<stop offset="0.6285" stop-color="#3F2B18"/>
<stop offset="0.7135" stop-color="#321E18"/>
<stop offset="0.7386" stop-color="#2E1A19"/>
<stop offset="0.9629" stop-color="#0A0603"/>
</linearGradient>
<linearGradient id="paint37_linear_2651_2" x1="224.865" y1="72.5816" x2="161.622" y2="11.1668" gradientUnits="userSpaceOnUse">
<stop offset="0.0908" stop-color="#030203"/>
<stop offset="0.1726" stop-color="#2D262F"/>
<stop offset="0.209" stop-color="#31242A"/>
<stop offset="0.2879" stop-color="#362324"/>
<stop offset="0.3678" stop-color="#402A26"/>
<stop offset="0.4569" stop-color="#51382A"/>
<stop offset="0.6285" stop-color="#3F2B18"/>
<stop offset="0.7135" stop-color="#321E18"/>
<stop offset="0.7386" stop-color="#2E1A19"/>
<stop offset="0.9629" stop-color="#0A0603"/>
</linearGradient>
<linearGradient id="paint38_linear_2651_2" x1="205.792" y1="72.9243" x2="136.653" y2="30.7273" gradientUnits="userSpaceOnUse">
<stop offset="0.0908" stop-color="#030203"/>
<stop offset="0.1726" stop-color="#2D262F"/>
<stop offset="0.209" stop-color="#31242A"/>
<stop offset="0.2879" stop-color="#362324"/>
<stop offset="0.3678" stop-color="#402A26"/>
<stop offset="0.4569" stop-color="#51382A"/>
<stop offset="0.6285" stop-color="#3F2B18"/>
<stop offset="0.7135" stop-color="#321E18"/>
<stop offset="0.7386" stop-color="#2E1A19"/>
<stop offset="0.9629" stop-color="#0A0603"/>
</linearGradient>
<linearGradient id="paint39_linear_2651_2" x1="185.311" y1="91.4932" x2="70.1742" y2="28.1196" gradientUnits="userSpaceOnUse">
<stop offset="0.0908" stop-color="#030203"/>
<stop offset="0.1726" stop-color="#2D262F"/>
<stop offset="0.209" stop-color="#31242A"/>
<stop offset="0.2879" stop-color="#362324"/>
<stop offset="0.3678" stop-color="#402A26"/>
<stop offset="0.4569" stop-color="#51382A"/>
<stop offset="0.6285" stop-color="#3F2B18"/>
<stop offset="0.7135" stop-color="#321E18"/>
<stop offset="0.7386" stop-color="#2E1A19"/>
<stop offset="0.9629" stop-color="#0A0603"/>
</linearGradient>
<linearGradient id="paint40_linear_2651_2" x1="196.382" y1="86.3106" x2="75.3276" y2="23.3913" gradientUnits="userSpaceOnUse">
<stop offset="0.0908" stop-color="#030203"/>
<stop offset="0.1726" stop-color="#2D262F"/>
<stop offset="0.209" stop-color="#31242A"/>
<stop offset="0.2879" stop-color="#362324"/>
<stop offset="0.3678" stop-color="#402A26"/>
<stop offset="0.4569" stop-color="#51382A"/>
<stop offset="0.6285" stop-color="#3F2B18"/>
<stop offset="0.7135" stop-color="#321E18"/>
<stop offset="0.7386" stop-color="#2E1A19"/>
<stop offset="0.9629" stop-color="#0A0603"/>
</linearGradient>
<linearGradient id="paint41_linear_2651_2" x1="156.587" y1="104.809" x2="73.1789" y2="111.633" gradientUnits="userSpaceOnUse">
<stop offset="0.1081" stop-color="#030306"/>
<stop offset="0.1914" stop-color="#1D141D"/>
<stop offset="0.2696" stop-color="#291E22"/>
<stop offset="0.3428" stop-color="#302325"/>
<stop offset="0.4555" stop-color="#35272C"/>
<stop offset="0.6055" stop-color="#342A28"/>
<stop offset="0.7203" stop-color="#2B1D23"/>
<stop offset="0.7255" stop-color="#2B1D23"/>
<stop offset="0.9056" stop-color="#060002"/>
</linearGradient>
<linearGradient id="paint42_linear_2651_2" x1="175.433" y1="97.5994" x2="143.893" y2="123.972" gradientUnits="userSpaceOnUse">
<stop stop-color="#030306"/>
<stop offset="0.2143" stop-color="#272023"/>
<stop offset="0.7197" stop-color="#2F2A2D"/>
<stop offset="0.7413" stop-color="#302B2E"/>
<stop offset="1" stop-color="#060002"/>
</linearGradient>
<linearGradient id="paint43_linear_2651_2" x1="167.186" y1="97.7435" x2="134.868" y2="129.237" gradientUnits="userSpaceOnUse">
<stop offset="0.1081" stop-color="#201C23"/>
<stop offset="0.1914" stop-color="#2F292C"/>
<stop offset="0.2029" stop-color="#312A2D"/>
<stop offset="0.2887" stop-color="#423637"/>
<stop offset="0.3526" stop-color="#493B3B"/>
<stop offset="0.5455" stop-color="#504542"/>
<stop offset="0.5998" stop-color="#534946"/>
<stop offset="0.725" stop-color="#504647"/>
<stop offset="0.9056" stop-color="#060002"/>
</linearGradient>
<radialGradient id="paint44_radial_2651_2" cx="0" cy="0" r="1" gradientUnits="userSpaceOnUse" gradientTransform="translate(140.714 369.695) scale(45.7678 47.7944)">
<stop offset="0.4421" stop-color="#AFBADE"/>
<stop offset="0.4545" stop-color="#BFC7E4"/>
<stop offset="0.4799" stop-color="#DADFEF"/>
<stop offset="0.5056" stop-color="#EDEFF6"/>
<stop offset="0.5317" stop-color="#F9F9FB"/>
<stop offset="0.5589" stop-color="#FDFDFD"/>
<stop offset="0.7469" stop-color="#D1D5E2"/>
<stop offset="0.8081" stop-color="#BDC5DF"/>
<stop offset="0.8747" stop-color="#AFBADE"/>
<stop offset="0.9326" stop-color="#ABB7DE"/>
</radialGradient>
<radialGradient id="paint45_radial_2651_2" cx="0" cy="0" r="1" gradientUnits="userSpaceOnUse" gradientTransform="translate(202.79 206.585) scale(90.1382 94.1293)">
<stop offset="0.3291" stop-color="#FEFDFC"/>
<stop offset="0.6916" stop-color="#FDFDFD"/>
<stop offset="0.7469" stop-color="#D1D5E2"/>
<stop offset="0.7534" stop-color="#CDD2E1"/>
<stop offset="0.8008" stop-color="#BAC3DF"/>
<stop offset="0.849" stop-color="#AEBADE"/>
<stop offset="0.8992" stop-color="#ABB7DE"/>
</radialGradient>
</defs>
</svg>
